# Blender v2.83.4 OBJ File: ''
# www.blender.org
mtllib ship.mtl
o Cube_Cube.001
v 0.000000 -0.452679 0.632049
v -0.000000 0.016384 1.731067
v -0.620922 -0.234531 -0.549509
v -0.620922 0.234531 0.549509
v 0.620922 -0.234531 -0.549509
v 0.620922 0.234531 0.549509
v 0.000000 -0.016384 -1.731067
v -0.000000 0.452679 -0.632049
v -2.218768 -0.444481 1.073085
v -2.218769 0.024581 2.172103
v -3.364645 0.242729 0.990545
v -3.364645 -0.226334 -0.108473
v 3.364645 -0.226334 -0.108473
v 3.364645 0.242729 0.990545
v 2.218768 0.024581 2.172104
v 2.218768 -0.444481 1.073085
vt 0.375000 0.250000
vt 0.625000 0.250000
vt 0.625000 0.500000
vt 0.375000 0.500000
vt 0.625000 0.750000
vt 0.375000 0.750000
vt 0.125000 0.500000
vt 0.125000 0.750000
vt 0.875000 0.500000
vt 0.875000 0.750000
vt 0.375000 0.000000
vt 0.625000 0.000000
vt 0.625000 0.250000
vt 0.375000 0.250000
vt 0.625000 0.000000
vt 0.375000 0.000000
vt 0.375000 0.750000
vt 0.625000 0.750000
vt 0.625000 1.000000
vt 0.375000 1.000000
vt 0.625000 1.000000
vt 0.375000 1.000000
vn -0.7306 0.6280 -0.2680
vn 0.7306 0.6280 -0.2680
vn 0.0000 -0.9834 -0.1816
vn 0.0000 0.9834 0.1816
vn -0.5016 -0.7956 0.3396
vn 0.0744 -0.9172 0.3915
vn 0.0315 0.9868 0.1587
vn -0.0602 0.9181 -0.3918
vn -0.0315 -0.9868 -0.1587
vn 0.5016 -0.7956 0.3396
vn 0.0602 0.9181 -0.3918
vn -0.0315 0.9868 0.1587
vn -0.0744 -0.9172 0.3915
vn 0.0315 -0.9868 -0.1587
usemtl None
s off
f 3/1/1 4/2/1 8/3/1 7/4/1
f 7/4/2 8/3/2 6/5/2 5/6/2
f 3/7/3 7/4/3 5/6/3 1/8/3
f 8/3/4 4/9/4 2/10/4 6/5/4
f 9/11/5 10/12/5 11/13/5 12/14/5
f 2/15/6 10/12/6 9/11/6 1/16/6
f 4/2/7 11/13/7 10/12/7 2/15/7
f 3/1/8 12/14/8 11/13/8 4/2/8
f 1/16/9 9/11/9 12/14/9 3/1/9
f 13/17/10 14/18/10 15/19/10 16/20/10
f 6/5/11 14/18/11 13/17/11 5/6/11
f 2/21/12 15/19/12 14/18/12 6/5/12
f 1/22/13 16/20/13 15/19/13 2/21/13
f 5/6/14 13/17/14 16/20/14 1/22/14
