# Blender v2.83.4 OBJ File: ''
# www.blender.org
mtllib ship.mtl
o Cube_Cube.001
v -0.236265 -0.234531 -0.549509
v -0.711451 0.234531 0.549509
v 0.000000 0.452679 -0.632049
v 0.000000 -0.016384 -1.731067
v 0.711451 0.234531 0.549509
v 0.236265 -0.234531 -0.549509
v 0.000000 -0.222444 -0.093177
v 0.000000 0.016384 0.549369
v -2.218768 -0.444481 1.073085
v -0.778185 0.024581 1.174109
v -3.364645 0.242729 0.990545
v -3.364645 -0.226334 -0.108473
v 3.364645 -0.226334 -0.108473
v 3.364645 0.242729 0.990545
v 0.778184 0.024581 1.174110
v 2.218768 -0.444481 1.073085
v -0.084754 0.732617 4.233838
v 0.000000 1.457428 4.252617
v 0.084754 0.732617 4.233838
v 0.000000 0.007810 4.233698
v 0.093060 0.404410 3.122019
v 0.000000 0.012097 2.391534
v -0.093060 0.404410 3.122019
v 0.000000 0.404410 3.122019
vt 0.375000 0.250000
vt 0.625000 0.500000
vt 0.375000 0.500000
vt 0.375000 0.750000
vt 0.125000 0.500000
vt 0.125000 0.750000
vt 0.625000 0.750000
vt 0.625000 1.000000
vt 0.625000 1.000000
vt 0.375000 0.000000
vt 0.625000 0.250000
vt 0.375000 0.250000
vt 0.625000 0.000000
vt 0.375000 0.000000
vt 0.625000 0.000000
vt 0.625000 0.250000
vt 0.625000 0.750000
vt 0.375000 1.000000
vt 0.375000 0.750000
vt 0.625000 0.750000
vt 0.625000 1.000000
vt 0.625000 1.000000
vt 0.375000 1.000000
vt 0.875000 0.500000
vt 0.625000 0.750000
vt 0.625000 0.500000
vt 0.625000 0.500000
vt 0.625000 0.250000
vt 0.625000 0.250000
vt 0.625000 0.000000
vt 0.625000 0.000000
vt 0.875000 0.750000
vn -0.9074 0.2736 -0.3190
vn -0.9140 0.2789 -0.2945
vn -0.9422 0.3081 -0.1315
vn 0.9140 0.2789 -0.2945
vn 0.9074 0.2736 -0.3190
vn 0.9422 0.3081 -0.1315
vn 0.0000 -0.9959 -0.0900
vn 0.0000 -0.9996 0.0265
vn 0.8053 0.5841 -0.1018
vn 0.0000 -0.9749 0.2228
vn 0.0000 -0.9633 0.2683
vn -0.2081 -0.2330 0.9499
vn -0.4528 -0.6868 0.5685
vn -0.5016 -0.7956 0.3396
vn 0.2679 -0.9014 0.3402
vn 0.2650 -0.9028 0.3387
vn 0.2605 -0.9050 0.3364
vn 0.1776 0.9269 0.3305
vn 0.1339 0.9349 0.3286
vn 0.2765 0.9016 0.3326
vn -0.0607 0.9159 -0.3968
vn -0.0571 0.9112 -0.4080
vn -0.0557 0.9094 -0.4122
vn -0.0124 -0.9896 -0.1432
vn 0.0566 -0.9966 -0.0598
vn 0.0892 -0.9958 -0.0198
vn 0.4528 -0.6868 0.5685
vn 0.2081 -0.2330 0.9499
vn 0.5016 -0.7956 0.3396
vn 0.0571 0.9112 -0.4080
vn 0.0607 0.9159 -0.3968
vn 0.0557 0.9094 -0.4122
vn -0.1339 0.9349 0.3286
vn -0.1776 0.9269 0.3305
vn -0.2765 0.9016 0.3326
vn -0.2650 -0.9028 0.3387
vn -0.2679 -0.9014 0.3402
vn -0.2605 -0.9050 0.3364
vn -0.0566 -0.9966 -0.0598
vn 0.0124 -0.9896 -0.1432
vn -0.0892 -0.9958 -0.0198
vn 0.0000 -0.0130 0.9999
vn 0.0000 -0.0259 0.9997
vn 0.0000 0.9838 -0.1794
vn -0.9973 0.0475 -0.0559
vn 0.0000 0.7318 -0.6816
vn -0.8053 0.5841 -0.1018
vn 0.9973 0.0475 -0.0559
vn 0.7594 0.6488 0.0483
vn -0.7594 0.6488 0.0483
vn 0.0000 0.9999 0.0129
vn 0.0000 -1.0000 -0.0023
vn -0.8511 0.2363 -0.4688
vn 0.8511 0.2363 -0.4688
vn 0.0000 -0.9834 -0.1816
vn -0.0706 0.0021 0.9975
vn 0.2694 -0.9007 0.3410
vn 0.0567 0.9445 0.3235
vn -0.0623 0.9179 -0.3918
vn -0.0249 -0.9871 -0.1581
vn 0.0706 0.0021 0.9975
vn 0.0623 0.9179 -0.3918
vn -0.0567 0.9445 0.3235
vn -0.2694 -0.9007 0.3410
vn 0.0249 -0.9871 -0.1581
vn 0.0000 -0.0002 1.0000
usemtl None
s 1
f 1/1/1 3/2/2 4/3/3
f 3/2/4 6/4/5 4/3/6
f 1/5/7 6/4/7 7/6/8
f 21/7/9 20/8/10 22/9/11
f 9/10/12 11/11/13 12/12/14
f 10/13/15 7/14/16 8/15/17
f 2/16/18 10/13/19 8/15/20
f 12/12/21 2/16/22 1/1/23
f 9/10/24 1/1/25 7/14/26
f 14/17/27 16/18/28 13/19/29
f 5/20/30 13/19/31 6/4/32
f 15/21/33 5/20/34 8/22/35
f 7/23/36 15/21/37 8/22/38
f 6/4/39 16/18/40 7/23/41
f 17/24/42 19/25/42 18/26/43
f 24/27/44 17/28/45 18/26/46
f 23/29/47 20/30/10 17/28/45
f 24/27/44 19/25/48 21/7/9
f 5/20/49 24/27/44 21/7/9
f 2/16/50 22/31/11 23/29/47
f 2/16/50 24/27/44 3/2/51
f 5/20/49 22/9/11 8/22/52
f 1/1/1 2/16/53 3/2/2
f 3/2/4 5/20/54 6/4/5
f 1/5/7 4/3/55 6/4/7
f 21/7/9 19/25/48 20/8/10
f 9/10/12 10/13/56 11/11/13
f 10/13/15 9/10/57 7/14/16
f 2/16/18 11/11/58 10/13/19
f 12/12/21 11/11/59 2/16/22
f 9/10/24 12/12/60 1/1/25
f 14/17/27 15/21/61 16/18/28
f 5/20/30 14/17/62 13/19/31
f 15/21/33 14/17/63 5/20/34
f 7/23/36 16/18/64 15/21/37
f 6/4/39 13/19/65 16/18/40
f 17/24/42 20/32/66 19/25/42
f 24/27/44 23/29/47 17/28/45
f 23/29/47 22/31/11 20/30/10
f 24/27/44 18/26/46 19/25/48
f 5/20/49 3/2/51 24/27/44
f 2/16/50 8/15/52 22/31/11
f 2/16/50 23/29/47 24/27/44
f 5/20/49 21/7/9 22/9/11
