# Blender v2.83.4 OBJ File: ''
# www.blender.org
mtllib thing.mtl
o Circle.001
v 0.000000 1.426798 0.000001
v 2.629421 0.000000 -3.891118
v -0.131897 -0.000000 -2.044544
v -2.093989 0.000000 -2.518905
v -2.141990 -0.000000 -1.882370
v -2.234440 0.000000 -1.511541
v -3.891121 -0.000000 -2.629423
v -2.518905 -0.000000 2.093989
v -2.206649 -0.000000 2.116745
v -1.882370 -0.000000 2.141991
v -1.511541 -0.000000 2.234441
v -2.629423 -0.000000 3.891122
v 2.093992 -0.000000 2.518906
v 2.116747 -0.000000 2.206650
v 2.234441 -0.000000 1.511539
v 2.518903 0.000000 -2.093989
v 2.206647 0.000000 -2.116744
v 1.882368 0.000000 -2.141990
v 1.511539 0.000000 -2.234441
v 0.000000 -1.426798 0.000001
v 0.475466 0.000000 -2.320951
v -0.839607 0.000000 -2.152514
v -2.116744 0.000000 -2.206650
v -2.320948 -0.000000 -0.475465
v -2.044544 0.000000 0.131897
v -2.152514 -0.000000 0.839608
v -0.475465 -0.000000 2.320951
v 0.131897 0.000000 2.044541
v 0.839607 -0.000000 2.152514
v 2.141991 0.000000 1.882368
v 3.891122 0.000000 2.629421
v 2.320948 0.000000 0.475463
v 2.044541 -0.000000 -0.131899
v 2.152517 0.000000 -0.839610
vt 0.500000 0.500000
vt 0.500000 1.000000
vt 0.402455 0.990393
vt 0.308658 0.961940
vt 0.222215 0.915735
vt 0.146447 0.853553
vt 0.084265 0.777785
vt 0.038060 0.691342
vt 0.009607 0.597545
vt 0.000000 0.500000
vt 0.009607 0.402455
vt 0.038060 0.308658
vt 0.084265 0.222215
vt 0.146447 0.146447
vt 0.222215 0.084265
vt 0.308658 0.038060
vt 0.402455 0.009607
vt 0.500000 0.000000
vt 0.597545 0.009607
vt 0.691342 0.038060
vt 0.777785 0.084265
vt 0.853554 0.146447
vt 0.915735 0.222215
vt 0.961940 0.308659
vt 0.990393 0.402455
vt 1.000000 0.500000
vt 0.990393 0.597546
vt 0.961940 0.691342
vt 0.915734 0.777786
vt 0.853553 0.853554
vt 0.777785 0.915735
vt 0.691341 0.961940
vt 0.597544 0.990393
vt 0.500000 0.500000
vn -0.3927 0.7454 -0.5387
vn -0.5891 0.0000 -0.8081
vn -0.2474 0.8020 -0.5437
vn -0.4142 0.0000 -0.9102
vn 0.0876 0.8142 -0.5739
vn 0.1508 0.0000 -0.9886
vn 0.1723 0.7888 -0.5901
vn 0.2804 0.0000 -0.9599
vn -0.5303 0.8469 -0.0386
vn -0.9974 0.0000 -0.0727
vn -0.9974 -0.0015 -0.0725
vn -0.9970 0.0000 -0.0776
vn -0.4761 0.8713 -0.1187
vn -0.9703 0.0000 -0.2419
vn 0.5593 0.0022 -0.8289
vn 0.5593 0.0000 -0.8289
vn -0.5387 0.7454 0.3927
vn -0.8081 0.0000 0.5891
vn -0.5437 0.8020 0.2474
vn -0.9102 0.0000 0.4142
vn -0.5739 0.8142 -0.0876
vn -0.9886 0.0000 -0.1508
vn -0.5901 0.7888 -0.1723
vn -0.9599 0.0000 -0.2804
vn -0.0386 0.8469 0.5303
vn -0.0727 0.0000 0.9974
vn -0.0725 -0.0015 0.9974
vn -0.0776 0.0000 0.9970
vn -0.1187 0.8713 0.4761
vn -0.2419 0.0000 0.9703
vn -0.8289 0.0022 -0.5593
vn -0.8289 0.0000 -0.5593
vn 0.3927 0.7454 0.5387
vn 0.5891 0.0000 0.8081
vn 0.2474 0.8020 0.5437
vn 0.4142 0.0000 0.9102
vn -0.0876 0.8142 0.5739
vn -0.1508 0.0000 0.9886
vn -0.1723 0.7888 0.5901
vn -0.2804 0.0000 0.9599
vn 0.5303 0.8469 0.0386
vn 0.9974 0.0000 0.0727
vn 0.9974 -0.0015 0.0725
vn 0.9970 0.0000 0.0776
vn 0.4761 0.8713 0.1187
vn 0.9703 0.0000 0.2419
vn -0.5593 0.0022 0.8289
vn -0.5593 0.0000 0.8289
vn 0.5387 0.7454 -0.3927
vn 0.8081 0.0000 -0.5891
vn 0.5437 0.8020 -0.2474
vn 0.9102 0.0000 -0.4142
vn 0.5739 0.8142 0.0876
vn 0.9886 0.0000 0.1508
vn 0.5901 0.7888 0.1723
vn 0.9599 0.0000 0.2804
vn 0.0386 0.8469 -0.5303
vn 0.0727 0.0000 -0.9974
vn 0.0725 -0.0015 -0.9974
vn 0.0776 0.0000 -0.9970
vn 0.1187 0.8713 -0.4761
vn 0.2419 0.0000 -0.9703
vn 0.8289 0.0022 0.5593
vn 0.8289 0.0000 0.5593
vn -0.3927 -0.7454 -0.5387
vn -0.2474 -0.8020 -0.5437
vn 0.0876 -0.8142 -0.5739
vn 0.1723 -0.7888 -0.5901
vn -0.5284 -0.8480 -0.0412
vn -0.4761 -0.8713 -0.1187
vn 0.5593 -0.0022 -0.8289
vn -0.5387 -0.7454 0.3927
vn -0.5437 -0.8020 0.2474
vn -0.5739 -0.8142 -0.0876
vn -0.5901 -0.7888 -0.1723
vn -0.0412 -0.8480 0.5284
vn -0.1187 -0.8713 0.4761
vn -0.8289 -0.0022 -0.5593
vn 0.3927 -0.7454 0.5387
vn 0.2474 -0.8020 0.5437
vn -0.0876 -0.8142 0.5739
vn -0.1723 -0.7888 0.5901
vn 0.5284 -0.8480 0.0412
vn 0.4761 -0.8713 0.1187
vn -0.5593 -0.0022 0.8289
vn 0.5387 -0.7454 -0.3927
vn 0.5437 -0.8020 -0.2474
vn 0.5739 -0.8142 0.0876
vn 0.5901 -0.7888 0.1723
vn 0.0412 -0.8480 -0.5284
vn 0.1187 -0.8713 -0.4761
vn 0.8289 -0.0022 0.5593
usemtl None
s 1
f 1/1/1 2/2/2 21/3/2
f 1/1/3 21/3/4 3/4/4
f 1/1/5 3/4/6 22/5/6
f 1/1/7 22/5/8 4/6/8
f 1/1/9 4/6/10 23/7/11
f 1/1/9 23/7/11 5/8/12
f 1/1/13 5/8/14 6/9/14
f 1/1/15 6/9/16 7/10/16
f 1/1/17 7/10/18 24/11/18
f 1/1/19 24/11/20 25/12/20
f 1/1/21 25/12/22 26/13/22
f 1/1/23 26/13/24 8/14/24
f 1/1/25 8/14/26 9/15/27
f 1/1/25 9/15/27 10/16/28
f 1/1/29 10/16/30 11/17/30
f 1/1/31 11/17/32 12/18/32
f 1/1/33 12/18/34 27/19/34
f 1/1/35 27/19/36 28/20/36
f 1/1/37 28/20/38 29/21/38
f 1/1/39 29/21/40 13/22/40
f 1/1/41 13/22/42 14/23/43
f 1/1/41 14/23/43 30/24/44
f 1/1/45 30/24/46 15/25/46
f 1/1/47 15/25/48 31/26/48
f 1/1/49 31/26/50 32/27/50
f 1/1/51 32/27/52 33/28/52
f 1/1/53 33/28/54 34/29/54
f 1/1/55 34/29/56 16/30/56
f 1/1/57 16/30/58 17/31/59
f 1/1/57 17/31/59 18/32/60
f 1/1/61 18/32/62 19/33/62
f 1/1/63 19/33/64 2/2/64
f 20/34/65 21/3/2 2/2/2
f 20/34/66 3/4/4 21/3/4
f 20/34/67 22/5/6 3/4/6
f 20/34/68 4/6/8 22/5/8
f 20/34/69 23/7/11 4/6/10
f 20/34/69 5/8/12 23/7/11
f 20/34/70 6/9/14 5/8/14
f 20/34/71 7/10/16 6/9/16
f 20/34/72 24/11/18 7/10/18
f 20/34/73 25/12/20 24/11/20
f 20/34/74 26/13/22 25/12/22
f 20/34/75 8/14/24 26/13/24
f 20/34/76 9/15/27 8/14/26
f 20/34/76 10/16/28 9/15/27
f 20/34/77 11/17/30 10/16/30
f 20/34/78 12/18/32 11/17/32
f 20/34/79 27/19/34 12/18/34
f 20/34/80 28/20/36 27/19/36
f 20/34/81 29/21/38 28/20/38
f 20/34/82 13/22/40 29/21/40
f 20/34/83 14/23/43 13/22/42
f 20/34/83 30/24/44 14/23/43
f 20/34/84 15/25/46 30/24/46
f 20/34/85 31/26/48 15/25/48
f 20/34/86 32/27/50 31/26/50
f 20/34/87 33/28/52 32/27/52
f 20/34/88 34/29/54 33/28/54
f 20/34/89 16/30/56 34/29/56
f 20/34/90 17/31/59 16/30/58
f 20/34/90 18/32/60 17/31/59
f 20/34/91 19/33/62 18/32/62
f 20/34/92 2/2/64 19/33/64
